# xmcd
#
# Track frame offsets: 
#        200
#        15200
#        27875
#        43400
#        59000
#        69650
#        83300
#        100850
#        117875
#        132125
#
# Disc length: 2028 seconds
#
# Revision: 2
# Processed by: cddbd v1.5.2PL0 Copyright (c) Steve Scherf et al.
# Submitted via: ExactAudioCopyFreeDBPlugin 1.0
#
DISCID=7907ea0a
DTITLE=John Hammond - Hot Tracks
DYEAR=1979
DGENRE=Blues
TTITLE0=Mama Keep Your Big Mouth Shut
TTITLE1=Who's Been Talkin'
TTITLE2=Sugar Mama
TTITLE3=Howling For My Darling
TTITLE4=You Better Watch Yourself
TTITLE5=Pretty Thing
TTITLE6=Caress Me Baby
TTITLE7=Nadine
TTITLE8=Last Night
TTITLE9=Sweet Home Chicago
EXTD=ID3G: 0
EXTT0=
EXTT1=
EXTT2=
EXTT3=
EXTT4=
EXTT5=
EXTT6=
EXTT7=
EXTT8=
EXTT9=
PLAYORDER=
